<svg width="160" height="209" viewBox="0 0 160 209" fill="none" xmlns="http://www.w3.org/2000/svg">
<path fill-rule="evenodd" clip-rule="evenodd" d="M72.8815 0.287188C67.9081 0.61188 61.5643 1.40444 59.4224 1.96817C58.5999 2.18463 56.4849 2.68744 54.7224 3.08499C52.9599 3.48297 50.9119 4.0693 50.1714 4.38803C49.431 4.70675 48.4329 4.96752 47.9535 4.96752C47.4741 4.96752 46.963 5.15927 46.8178 5.39363C46.6725 5.62798 46.2662 5.81973 45.9145 5.81973C44.0187 5.81973 29.2217 13.5795 28.73 14.8314C28.6513 15.0308 28.3839 15.194 28.1348 15.194C27.1354 15.194 20.7886 21.0589 17.5349 24.9893C15.5314 27.4096 11.997 32.7597 11.9958 33.3746C11.9953 33.6477 11.8509 33.9354 11.6744 34.0138C11.1245 34.2575 9.04842 38.9208 7.91272 42.4647C7.49955 43.7537 7.00604 45.1918 6.8159 45.6605C5.23285 49.5615 4.12834 61.5593 4.72952 68.3241C5.19354 73.546 6.20062 79.2055 6.89451 80.4885C7.11499 80.8955 7.29487 81.4417 7.29487 81.7025C7.29487 81.9633 7.55723 82.781 7.87768 83.5194C8.19814 84.2578 8.81982 85.7249 9.25863 86.7795C9.69787 87.8341 10.3007 88.9505 10.5986 89.2599C10.8968 89.5697 11.1403 90.081 11.1403 90.3963C11.1403 90.7116 11.2843 91.0333 11.4608 91.1117C11.6373 91.1897 12.438 92.1919 13.2404 93.339C16.4287 97.8945 22.5302 103.285 28.445 106.772C30.09 107.742 31.7243 108.723 32.0768 108.952C32.4293 109.181 33.0061 109.487 33.3586 109.632C33.7111 109.776 35.2493 110.463 36.7768 111.157C40.4706 112.837 41.5542 113.241 47.0314 114.985C48.5589 115.471 50.1932 116.023 50.6632 116.213C51.1332 116.402 52.1908 116.687 53.0133 116.844C53.8358 117.002 54.701 117.277 54.936 117.455C55.3205 117.746 56.2678 117.977 58.755 118.388C59.372 118.489 59.6869 118.172 59.9915 117.139C60.2167 116.378 60.5649 115.755 60.7662 115.755C60.967 115.755 61.1315 115.449 61.1315 115.075C61.1315 114.701 61.3977 113.886 61.7228 113.264C62.2783 112.201 63.0175 110.557 64.0502 108.085C64.295 107.499 65.0846 105.712 65.8046 104.113C66.5241 102.515 67.1133 101.138 67.1133 101.054C67.1133 100.97 67.7025 99.5929 68.4221 97.9946C69.142 96.3963 69.9316 94.6092 70.1765 94.0233C71.7206 90.3277 71.8467 90.0341 73.5289 86.2056C74.0279 85.0696 74.3748 84.0985 74.2996 84.0474C74.1398 83.9396 71.7864 83.2531 68.1815 82.2637C66.7715 81.8768 65.2333 81.4034 64.7633 81.2116C64.2933 81.0203 63.2708 80.7386 62.4915 80.5857C61.7117 80.4327 60.5581 80.0394 59.9278 79.7113C59.2972 79.3832 58.6187 79.1139 58.4191 79.1122C58.22 79.1109 56.3934 78.2979 54.36 77.306C49.4707 74.9202 45.4043 71.0064 44.3404 67.6624C43.388 64.669 43.353 57.164 44.2759 53.9405C45.9658 48.0381 49.7826 43.2879 54.7224 40.9392C59.563 38.6379 59.3019 38.7252 64.1224 37.7844C65.4149 37.5321 67.3376 37.1503 68.3951 36.936C74.9137 35.6146 95.046 36.4366 98.9453 38.1828C99.4153 38.3933 100.281 38.6566 100.868 38.7674C101.831 38.9498 103.349 39.4406 105.782 40.3576C109.477 41.7501 116.606 45.6643 119.004 47.6176C121.779 49.878 126.609 54.9466 131.714 60.9551L132.761 62.1882L133.672 60.2562C134.173 59.194 134.709 57.824 134.863 57.2122C135.017 56.6007 135.314 56.1 135.523 56.1C135.733 56.1 135.905 55.8303 135.905 55.5005C135.905 55.1707 136.481 53.6192 137.186 52.052C137.891 50.4848 138.468 48.9334 138.468 48.6036C138.468 48.2738 138.66 48.004 138.895 48.004C139.13 48.004 139.323 47.7936 139.323 47.5358C139.323 47.0509 139.615 46.3533 141.844 41.5047C142.573 39.9221 143.168 38.3404 143.168 37.9893C143.168 37.6386 143.36 37.3514 143.595 37.3514C143.83 37.3514 144.023 37.0642 144.023 36.7136C144.023 36.3624 144.618 34.7808 145.346 33.1982C146.074 31.6157 146.949 29.6496 147.29 28.8294C147.631 28.0091 148.093 27.0052 148.316 26.5983C149.147 25.0865 149.088 25.0038 144.882 21.788C143.357 20.6222 141.86 19.435 141.555 19.1504C141.25 18.8658 140.431 18.2969 139.735 17.8866C139.038 17.4767 138.468 16.9905 138.468 16.8064C138.468 16.6227 138.18 16.4723 137.827 16.4723C137.475 16.4723 137.186 16.2844 137.186 16.0543C137.186 15.8247 136.706 15.5162 136.118 15.3692C135.531 15.2221 135.05 14.9307 135.05 14.7219C135.05 14.5127 134.861 14.3418 134.63 14.3418C134.399 14.3418 133.005 13.6085 131.533 12.712C130.059 11.8159 127.509 10.4502 125.864 9.67767C122.991 8.32862 122.205 7.97667 118.749 6.49042C117.891 6.12141 116.893 5.81973 116.531 5.81973C116.169 5.81973 115.767 5.64972 115.639 5.44178C115.51 5.23426 114.706 4.93344 113.852 4.77365C112.998 4.61386 111.987 4.32708 111.604 4.13661C110.105 3.3888 104.525 2.18038 98.518 1.30218C89.6414 0.00468935 81.9026 -0.301688 72.8815 0.287188ZM104.844 93.5972C104.427 94.769 103.954 95.7277 103.793 95.7277C103.632 95.7277 103.374 96.3008 103.219 97.0014C103.065 97.7014 102.761 98.3841 102.544 98.5179C102.327 98.6512 102.15 99.1327 102.15 99.5878C102.15 100.043 101.973 100.415 101.756 100.415C101.54 100.415 101.227 101.032 101.061 101.786C100.895 102.54 100.601 103.45 100.408 103.81C100.039 104.497 98.0873 108.821 96.8444 111.707C95.6651 114.445 95.4369 114.961 94.0585 118.021C93.339 119.62 92.7498 121.077 92.7498 121.26C92.7498 121.444 92.2691 122.495 91.6816 123.597C91.0941 124.699 90.6134 125.774 90.6134 125.987C90.6134 126.199 91.4308 126.593 92.4293 126.863C93.4279 127.133 94.6298 127.512 95.0998 127.706C95.5698 127.899 96.435 128.181 97.0225 128.331C101.174 129.394 110.449 133.586 113.235 135.658C116.728 138.257 118.855 141.132 120.103 144.943C120.885 147.335 120.814 154.689 119.985 157.087C119.148 159.506 118.303 161.404 117.748 162.106C116.521 163.66 114.503 165.609 114.121 165.609C113.882 165.609 113.686 165.777 113.686 165.982C113.686 166.456 106.805 169.855 104.759 170.391C95.9975 172.69 93.3057 172.954 80.9997 172.72C69.1322 172.495 66.331 172.122 57.286 169.563C54.5553 168.791 54.3899 168.733 49.5951 166.885C46.0106 165.504 40.6103 163.061 40.195 162.633C39.781 162.207 38.2637 161.32 37.5245 161.073C37.1135 160.935 36.7768 160.674 36.7768 160.492C36.7768 160.311 36.2961 160.041 35.7086 159.894C35.1211 159.747 34.6404 159.439 34.6404 159.209C34.6404 158.979 34.4255 158.791 34.1627 158.791C33.9 158.791 33.0574 158.264 32.29 157.619C31.5226 156.975 30.2523 155.968 29.4666 155.382C28.2211 154.453 21.9388 148.27 17.5965 143.698C16.7996 142.86 16.0044 142.173 15.8288 142.173C15.534 142.173 14.1313 144.768 14.1313 145.314C14.1313 145.529 13.2259 147.628 11.3219 151.825C10.9869 152.563 10.7131 153.378 10.7131 153.636C10.7131 153.893 10.5208 154.104 10.2858 154.104C10.0508 154.104 9.85852 154.421 9.85852 154.809C9.85852 155.196 9.39963 156.49 8.83905 157.685C8.27847 158.879 7.40254 160.815 6.8928 161.987C6.38349 163.159 5.75754 164.597 5.50245 165.183C4.98545 166.37 4.19115 168.257 3.52973 169.87C3.28917 170.456 2.60809 171.99 2.01589 173.279C-0.431536 178.607 -0.422986 178.562 0.832347 179.559C1.44933 180.049 2.43463 180.871 3.02213 181.387C3.60963 181.902 4.76327 182.829 5.58578 183.447C6.40828 184.065 7.56192 185.004 8.14942 185.534C8.73693 186.064 9.5543 186.604 9.96534 186.734C10.3764 186.865 10.7131 187.15 10.7131 187.369C10.7131 187.587 10.9258 187.766 11.1856 187.766C11.4454 187.766 12.3867 188.341 13.2767 189.045C14.1667 189.748 15.108 190.323 15.3678 190.323C15.6276 190.323 15.8404 190.502 15.8404 190.72C15.8404 190.939 16.2732 191.252 16.8017 191.417C17.3307 191.582 17.8592 191.834 17.9767 191.978C18.1908 192.241 19.4594 192.971 22.2491 194.437C23.0716 194.869 23.8406 195.319 23.9581 195.436C24.2607 195.737 31.7773 199.234 33.9995 200.107C34.4695 200.292 35.4228 200.673 36.118 200.954C36.8131 201.235 38.5436 201.847 39.9634 202.316C41.3833 202.784 42.9296 203.328 43.3996 203.526C43.8696 203.724 45.0232 204.076 45.9632 204.309C46.9032 204.543 48.826 205.053 50.236 205.444C54.3647 206.588 62.2061 207.931 68.8224 208.628C73.4015 209.111 92.3358 209.128 96.5953 208.654C103.761 207.856 107.527 207.199 113.045 205.782C119.049 204.242 127.13 201.209 130.021 199.41C130.898 198.865 131.737 198.419 131.886 198.419C132.162 198.419 138.075 194.609 138.468 194.179C138.586 194.05 139.547 193.251 140.605 192.404C143.056 190.441 145.85 187.655 147.819 185.21C148.668 184.155 149.46 183.196 149.577 183.079C149.695 182.962 150.026 182.483 150.312 182.014C150.598 181.545 151.661 179.819 152.674 178.179C153.686 176.538 154.872 174.333 155.309 173.279C155.745 172.224 156.365 170.757 156.685 170.019C157.006 169.28 157.268 168.401 157.268 168.066C157.268 167.73 157.412 167.312 157.589 167.137C157.987 166.741 158.865 162.647 159.513 158.152C160.673 150.116 159.637 134.552 157.707 131.04C157.498 130.659 157.196 129.652 157.036 128.803C156.876 127.954 156.575 127.259 156.366 127.259C156.157 127.259 155.986 126.913 155.986 126.489C155.986 126.065 155.704 125.346 155.359 124.891C155.014 124.436 154.726 123.728 154.718 123.318C154.711 122.908 154.516 122.572 154.285 122.572C154.055 122.572 153.746 122.093 153.598 121.507C153.451 120.921 153.159 120.442 152.949 120.442C152.74 120.442 152.568 120.23 152.568 119.97C152.568 119.546 151.325 117.823 148.936 114.939C147.445 113.137 142.854 108.511 142.558 108.511C142.401 108.511 141.849 108.077 141.332 107.547C140.243 106.432 134.398 102.545 133.809 102.545C133.591 102.545 133.348 102.384 133.27 102.187C133.117 101.803 124.552 97.6273 121.377 96.3899C120.32 95.9774 119.16 95.4925 118.799 95.3118C118.439 95.1316 117.484 94.8393 116.677 94.6625C115.87 94.4856 114.915 94.1848 114.555 93.9939C114.195 93.8034 112.746 93.3283 111.336 92.9389C109.926 92.5494 108.215 92.0585 107.534 91.8485C105.689 91.28 105.664 91.2962 104.844 93.5972Z" fill="#F7F7F7"/>
</svg>
