<?xml version="1.0" encoding="UTF-8"?><!DOCTYPE svg PUBLIC "-//W3C//DTD SVG 1.1//EN" "http://www.w3.org/Graphics/SVG/1.1/DTD/svg11.dtd"><svg xmlns="http://www.w3.org/2000/svg" xmlns:xlink="http://www.w3.org/1999/xlink"><defs>
        <clipPath id="a">
            <path d="M0 0h16v16H0z"/>
        </clipPath>
    </defs><symbol id="icon-arrow-down" viewBox="0 0 16 16">
    <path d="M.16 12.057l.801.786a.512.512 0 0 0 .738 0l6.3-6.174 6.302 6.174a.511.511 0 0 0 .737 0l.802-.786a.491.491 0 0 0 .16-.361.492.492 0 0 0-.16-.361l-7.471-7.32a.512.512 0 0 0-.738 0L.16 11.334a.492.492 0 0 0-.16.361c0 .136.053.257.16.361z"/>
</symbol><symbol id="icon-checked" viewBox="0 0 8 8">
    <path d="M2.178 3.156l-.622.622 2 2L8 1.333 7.378.711 3.556 4.533 2.178 3.156zM7.11 7.11H.89V.89h4.444V0H.89C.4 0 0 .4 0 .889V7.11C0 7.6.4 8 .889 8H7.11C7.6 8 8 7.6 8 7.111V3.556h-.889V7.11z"/>
</symbol><symbol id="icon-close" viewBox="0 0 24 24">
    <path d="M19 6.41L17.59 5 12 10.59 6.41 5 5 6.41 10.59 12 5 17.59 6.41 19 12 13.41 17.59 19 19 17.59 13.41 12 19 6.41z"/>
</symbol><symbol id="icon-envelope" viewBox="0 0 24 24">
    <path d="M20 4H4c-1.1 0-1.99.9-1.99 2L2 18c0 1.1.9 2 2 2h16c1.1 0 2-.9 2-2V6c0-1.1-.9-2-2-2zm0 14H4V8l8 5 8-5v10zm-8-7L4 6h16l-8 5z"/>
</symbol><symbol id="icon-fb" viewBox="0 0 24 24">
    <path d="M22.675 0H1.325C.594 0 0 .592 0 1.325v21.35C0 23.407.594 24 1.325 24h11.494v-9.294H9.69v-3.623h3.128V8.412c0-3.1 1.892-4.788 4.658-4.788 1.326 0 2.462.099 2.794.142v3.24h-1.918c-1.504 0-1.794.715-1.794 1.764v2.312h3.588l-.47 3.622H16.56V24h6.115c.732 0 1.326-.594 1.326-1.324V1.324C24 .592 23.406 0 22.675 0z"/>
</symbol><symbol id="icon-insta" viewBox="0 0 24 24">
    <path d="M6.667 0A6.674 6.674 0 0 0 0 6.667v10.666A6.674 6.674 0 0 0 6.667 24h10.666A6.674 6.674 0 0 0 24 17.333V6.667A6.674 6.674 0 0 0 17.333 0H6.667zm0 2.667h10.666c2.206 0 4 1.794 4 4v10.666c0 2.206-1.794 4-4 4H6.667c-2.206 0-4-1.794-4-4V6.667c0-2.206 1.794-4 4-4zm12 1.333a1.333 1.333 0 1 0 0 2.666 1.333 1.333 0 0 0 0-2.666zM12 5.333A6.674 6.674 0 0 0 5.333 12 6.674 6.674 0 0 0 12 18.667 6.674 6.674 0 0 0 18.667 12 6.674 6.674 0 0 0 12 5.333zM12 8c2.205 0 4 1.795 4 4s-1.795 4-4 4-4-1.795-4-4 1.795-4 4-4z"/>
</symbol><symbol id="icon-linkedin" viewBox="0 0 24 23">
    <path d="M19.372 3H4.628C3.73 3 3 3.729 3 4.628v14.744C3 20.27 3.729 21 4.628 21h14.744C20.27 21 21 20.271 21 19.372V4.628C21 3.73 20.271 3 19.372 3zM8.57 18.542a.474.474 0 0 1-.474.474H6.08a.474.474 0 0 1-.474-.474v-8.455c0-.262.212-.474.474-.474h2.017c.262 0 .474.212.474.474v8.455zM7.088 8.816a1.916 1.916 0 1 1 0-3.832 1.916 1.916 0 0 1 0 3.832zm12.023 9.765c0 .24-.195.435-.436.435h-2.164a.436.436 0 0 1-.436-.435v-3.966c0-.592.174-2.593-1.546-2.593-1.334 0-1.604 1.37-1.659 1.984v4.575c0 .24-.195.435-.435.435H10.34a.436.436 0 0 1-.436-.435v-8.532c0-.24.196-.436.436-.436h2.094c.24 0 .435.195.435.436v.738c.495-.743 1.23-1.316 2.795-1.316 3.466 0 3.446 3.238 3.446 5.017v4.093z"/>
</symbol><symbol id="icon-location" viewBox="0 0 24 24">
    <path d="M12 2C8.13 2 5 5.13 5 9c0 5.25 7 13 7 13s7-7.75 7-13c0-3.87-3.13-7-7-7zM7 9c0-2.76 2.24-5 5-5s5 2.24 5 5c0 2.88-2.88 7.19-5 9.88C9.92 16.21 7 11.85 7 9z"/>
    <path d="M12 11.5a2.5 2.5 0 1 0 0-5 2.5 2.5 0 0 0 0 5z"/>
</symbol><symbol id="icon-next" viewBox="0 0 16 10">
    <path d="M.693 5.69h12.942L10.547 8.78a.692.692 0 1 0 .98.979l4.27-4.27c.27-.271.27-.71 0-.98L11.527.237a.69.69 0 0 0-.98 0 .692.692 0 0 0 0 .98l3.088 3.088H.693a.693.693 0 0 0 0 1.385z"/>
</symbol><symbol id="icon-phone" viewBox="0 0 24 24">
    <path d="M17 1.01L7 1c-1.1 0-1.99.9-1.99 2v18c0 1.1.89 2 1.99 2h10c1.1 0 2-.9 2-2V3c0-1.1-.9-1.99-2-1.99zM17 19H7V5h10v14z"/>
</symbol><symbol id="icon-previous" viewBox="0 0 24 24">
    <path d="M12 4l1.41 1.41L7.83 11H20v2H7.83l5.58 5.59L12 20l-8-8 8-8z"/>
</symbol><symbol id="icon-search" viewBox="0 0 16 16">
    <g clip-path="url(#a)">
        <path d="M15.664 14.2l-4.177-4.177a6.297 6.297 0 0 0 1.194-3.655A6.335 6.335 0 0 0 6.34.028 6.335 6.335 0 0 0 0 6.367a6.335 6.335 0 0 0 6.34 6.34c1.343 0 2.611-.448 3.655-1.194l4.178 4.178c.373.373 1.044.373 1.491 0 .448-.448.448-1.045 0-1.492zM6.34 11.216a4.839 4.839 0 0 1-4.848-4.848A4.839 4.839 0 0 1 6.34 1.519a4.839 4.839 0 0 1 4.849 4.849 4.839 4.839 0 0 1-4.849 4.848z"/>
    </g>
    
</symbol><symbol id="icon-slider-arrow" viewBox="0 0 8 16">
    <path fill-rule="evenodd" clip-rule="evenodd" d="M8 0L0 8l8 8V0z"/>
</symbol><symbol id="icon-vk" viewBox="0 0 24 24">
    <path d="M22.47 0H1.534C.686 0 0 .686 0 1.531v20.938C0 23.314.686 24 1.533 24h20.936c.845 0 1.531-.686 1.531-1.531V1.531A1.528 1.528 0 0 0 22.47 0zm-2.562 14.624c.439.447 1.39 1.198 1.218 1.961-.16.702-1.206.446-2.222.486-1.16.05-1.848.075-2.546-.486-.328-.265-.521-.58-.836-.933-.286-.318-.647-.889-1.138-.867-.883.044-.607 1.274-.92 2.112-4.905.772-6.874-2.257-8.612-5.198-.842-1.424-2.058-4.483-2.058-4.483l3.469-.011S7.376 9.228 7.67 9.75c.251.444.527.796.812 1.192.238.329.616.973 1.03.92.672-.086.794-2.695.377-3.568-.166-.354-.564-.478-.976-.598.14-.878 3.89-1.06 4.497-.38.88.99-.61 3.743.596 4.546 1.694-.887 3.14-4.603 3.14-4.603l4.061.025s-.635 2.009-1.3 2.9c-.388.521-1.675 1.683-1.625 2.545.041.683 1.088 1.347 1.626 1.895z"/>
</symbol><symbol id="icon-youtube" viewBox="0 0 24 17">
    <path d="M22.98 1.619C22.329.439 21.622.223 20.184.14 18.747.04 15.134 0 12.003 0 8.867 0 5.251.041 3.816.139c-1.435.084-2.143.3-2.8 1.48C.345 2.796 0 4.825 0 8.395V8.408c0 3.555.345 5.599 1.016 6.764.657 1.179 1.363 1.393 2.798 1.492 1.438.086 5.053.136 8.189.136 3.13 0 6.744-.05 8.183-.134 1.438-.1 2.145-.314 2.796-1.492.676-1.166 1.018-3.21 1.018-6.765v-.007-.005c0-3.572-.342-5.6-1.02-6.778zM9 12.982V3.818L16.5 8.4 9 12.982z"/>
</symbol></svg>