<?xml version="1.0" encoding="utf-8"?><svg viewBox="0 0 26 26" xmlns="http://www.w3.org/2000/svg" xmlns:xlink="http://www.w3.org/1999/xlink"><style>:root>svg{display:none}:root>svg:target{display:block}</style><svg viewBox="0 0 8 6" id="arrow_down" xmlns="http://www.w3.org/2000/svg"><path d="M7.92.971L7.52.58a.256.256 0 00-.37 0L4 3.665.85.58a.256.256 0 00-.37 0l-.4.39a.246.246 0 00-.08.181c0 .068.027.128.08.18l3.736 3.66a.256.256 0 00.368 0l3.736-3.66a.246.246 0 00.08-.18.246.246 0 00-.08-.18z"/></svg><svg viewBox="0 0 26 26" id="facebook" xmlns="http://www.w3.org/2000/svg"><path d="M24.564 0H1.435C.643 0 0 .642 0 1.435v23.13C0 25.356.643 26 1.435 26h12.452V15.931h-3.388v-3.924h3.388V9.113c0-3.358 2.05-5.187 5.046-5.187 1.436 0 2.668.107 3.027.154v3.51h-2.078c-1.629 0-1.943.775-1.943 1.91v2.505h3.887l-.509 3.925H17.94v10.069h6.625c.793 0 1.436-.644 1.436-1.435V1.434A1.437 1.437 0 0024.564 0z"/></svg><svg viewBox="0 0 26 26" id="instagram" xmlns="http://www.w3.org/2000/svg"><path d="M13 9.905a3.095 3.095 0 10.002 6.19A3.095 3.095 0 0013 9.905zm7.238-2.38a3.134 3.134 0 00-1.765-1.765c-1.219-.481-4.12-.373-5.473-.373-1.352 0-4.251-.112-5.473.373a3.134 3.134 0 00-1.765 1.765c-.48 1.219-.373 4.123-.373 5.474 0 1.352-.108 4.253.375 5.476a3.134 3.134 0 001.765 1.764c1.219.482 4.12.374 5.473.374 1.353 0 4.25.112 5.473-.373a3.134 3.134 0 001.765-1.765c.485-1.22.373-4.124.373-5.475 0-1.35.112-4.252-.373-5.474l-.002-.001zM13 17.759a4.76 4.76 0 110-9.518 4.76 4.76 0 010 9.518zm4.955-8.607a1.11 1.11 0 111.027-.685 1.109 1.109 0 01-1.025.688l-.002-.003zM23.215 0H2.784A2.786 2.786 0 000 2.786v20.428A2.786 2.786 0 002.786 26h20.428A2.786 2.786 0 0026 23.214V2.786A2.786 2.786 0 0023.214 0zm-.994 16.83c-.075 1.488-.415 2.806-1.5 3.889-1.086 1.083-2.403 1.43-3.889 1.5-1.533.087-6.128.087-7.66 0-1.488-.075-2.801-.415-3.889-1.5-1.088-1.085-1.43-2.404-1.5-3.889-.087-1.533-.087-6.129 0-7.66.075-1.488.41-2.806 1.5-3.889 1.09-1.083 2.407-1.425 3.888-1.496 1.533-.086 6.128-.086 7.661 0 1.488.075 2.805.415 3.889 1.5 1.083 1.086 1.429 2.404 1.5 3.892.086 1.527.086 6.119 0 7.654z"/></svg><svg viewBox="0 0 14 13" id="ok" xmlns="http://www.w3.org/2000/svg"><path d="M10.395.127l2.95 1.703-4.598 7.963-1.703 2.95-2.949-1.704-3.44-1.986 1.702-2.95 3.44 1.987L10.396.127z"/></svg><svg viewBox="0 0 10 12" id="play" xmlns="http://www.w3.org/2000/svg"><path fill-rule="evenodd" clip-rule="evenodd" d="M9.377 5.15L1.591.119C1.361-.021 1.075.002.86.002c-.864 0-.86.683-.86.857v10.283c0 .146-.004.857.86.857.215 0 .501.023.731-.117L9.377 6.85c.64-.39.529-.85.529-.85s.11-.46-.529-.85z"/></svg><svg viewBox="0 0 6 10" id="triangle" xmlns="http://www.w3.org/2000/svg"><path fill-rule="evenodd" clip-rule="evenodd" d="M5.676 4.785L.963 1.005C.823.9.651.919.52.919c-.522 0-.52.513-.52.643v7.725c0 .11-.002.644.52.644.13 0 .304.017.443-.088l4.713-3.78c.386-.293.32-.638.32-.638s.066-.346-.32-.64z"/></svg><svg viewBox="0 0 26 26" id="vk" xmlns="http://www.w3.org/2000/svg"><path d="M24.343 0H1.66A1.66 1.66 0 000 1.659V24.34A1.66 1.66 0 001.66 26h22.681A1.66 1.66 0 0026 24.341V1.66A1.655 1.655 0 0024.343 0zm-2.776 15.843c.476.484 1.507 1.297 1.32 2.125-.173.76-1.307.482-2.408.526-1.256.053-2.001.08-2.757-.526-.356-.288-.565-.63-.907-1.011-.31-.345-.7-.964-1.233-.94-.956.048-.657 1.38-.996 2.288-5.313.837-7.447-2.446-9.33-5.63-.911-1.544-2.229-4.857-2.229-4.857l3.758-.013s1.205 2.192 1.524 2.758c.272.48.571.862.88 1.291.258.356.667 1.053 1.115.997.728-.094.86-2.92.409-3.866-.18-.384-.611-.518-1.057-.648.15-.95 4.215-1.149 4.871-.41.955 1.07-.66 4.054.646 4.924 1.835-.962 3.402-4.987 3.402-4.987l4.4.027s-.689 2.176-1.41 3.141c-.42.565-1.814 1.824-1.76 2.758.045.74 1.179 1.459 1.762 2.053z"/></svg><svg viewBox="0 0 26 26" id="youtube" xmlns="http://www.w3.org/2000/svg"><path d="M10.841 9.872l5.525 3.14-5.525 3.14v-6.28zM26 2.786v20.428A2.786 2.786 0 0123.214 26H2.786A2.786 2.786 0 010 23.214V2.786A2.786 2.786 0 012.786 0h20.428A2.786 2.786 0 0126 2.786zm-2.438 10.232s0-3.46-.44-5.12a2.649 2.649 0 00-1.87-1.88C19.61 5.572 13 5.572 13 5.572s-6.61 0-8.253.446a2.649 2.649 0 00-1.868 1.88c-.442 1.655-.442 5.12-.442 5.12s0 3.459.442 5.118a2.61 2.61 0 001.868 1.852c1.643.44 8.253.44 8.253.44s6.61 0 8.253-.446a2.61 2.61 0 001.868-1.851c.442-1.654.442-5.114.442-5.114z"/></svg></svg>